# xmcd CD database file
#
# Track frame offsets:
#	150
#	34315
#	69301
#	117180
#	148791
#	176678
#	201986
#
# Disc length: 3112 seconds
#
# Revision: 0
# Processed by: cddbd v1.5.2PL0 Copyright (c) Steve Scherf et al.
# Submitted via: CDex 1.70beta2
#
DISCID=670c2607
DTITLE=Greg Chako - Where We Find Ourselves [CD 1)
DYEAR=2006
DGENRE=Jazz
TTITLE0=Voyage Down
TTITLE1=Wave of Love
TTITLE2=Winter Solstice
TTITLE3=Takachan
TTITLE4=Love Goes Forth
TTITLE5=Creators of Life
TTITLE6=April Wind
EXTD=YEAR: 2006
EXTT0=
EXTT1=
EXTT2=
EXTT3=
EXTT4=
EXTT5=
EXTT6=
PLAYORDER=
